HIERARCHY
ROOT Pelvis
{
	OFFSET 0.000000 0.000000 0.000000
	CHANNELS 6 Xposition Yposition Zposition Xrotation Yrotation Zrotation
	JOINT LeftUpLeg_virtual
	{
		OFFSET 0.000000 0.000000 0.000000
		CHANNELS 3 Xrotation Yrotation Zrotation
		JOINT LeftUpLeg
		{
			OFFSET 18.735201 -5.666702 -4.541200
			CHANNELS 3 Xrotation Yrotation Zrotation
			JOINT LeftLeg
			{
				OFFSET -0.021200 -31.938179 0.493100
				CHANNELS 3 Xrotation Yrotation Zrotation
				JOINT LeftFoot
				{
					OFFSET 0.021200 -31.938179 -4.336299
					CHANNELS 3 Xrotation Yrotation Zrotation
					JOINT LeftToeBase
					{
						OFFSET 0.943001 -26.722000 15.023500
						CHANNELS 3 Xrotation Yrotation Zrotation
						End Site
						{
							OFFSET 0 0 0
						}
					}
				}
			}
		}
	}
	JOINT RightUpLeg_virtual
	{
		OFFSET 0.000000 0.000000 0.000000
		CHANNELS 3 Xrotation Yrotation Zrotation
		JOINT RightUpLeg
		{
			OFFSET -18.735201 -5.666702 -4.541200
			CHANNELS 3 Xrotation Yrotation Zrotation
			JOINT RightLeg
			{
				OFFSET 0.018946 -31.938133 0.493100
				CHANNELS 3 Xrotation Yrotation Zrotation
				JOINT RightFoot
				{
					OFFSET -0.018946 -31.938126 -4.336299
					CHANNELS 3 Xrotation Yrotation Zrotation
					JOINT RightToeBase
					{
						OFFSET -0.943001 -26.722004 15.023500
						CHANNELS 3 Xrotation Yrotation Zrotation
						End Site
						{
							OFFSET 0 0 0
						}
					}
				}
			}
		}
	}
	JOINT Hips_virtual
	{
		OFFSET 0.000000 0.000000 0.000000
		CHANNELS 3 Xrotation Yrotation Zrotation
		JOINT Hips
		{
			OFFSET -0.000000 -0.000000 -0.000000
			CHANNELS 3 Xrotation Yrotation Zrotation
			JOINT Spine
			{
				OFFSET 0.000000 10.199997 -0.299500
				CHANNELS 3 Xrotation Yrotation Zrotation
				JOINT Spine1
				{
					OFFSET 0.000000 11.900002 -1.516600
					CHANNELS 3 Xrotation Yrotation Zrotation
					JOINT Spine2
					{
						OFFSET 0.000000 13.600006 -2.842500
						CHANNELS 3 Xrotation Yrotation Zrotation
						JOINT Neck_virtual
						{
							OFFSET 0.000000 0.000000 0.000000
							CHANNELS 3 Xrotation Yrotation Zrotation
							JOINT Neck
							{
								OFFSET 0.000000 9.624100 -2.890100
								CHANNELS 3 Xrotation Yrotation Zrotation
								JOINT Head
								{
									OFFSET 0.000000 14.068802 -1.351900
									CHANNELS 3 Xrotation Yrotation Zrotation
									End Site
									{
										OFFSET 0 0 0
									}
								}
							}
						}
						JOINT LeftShoulder_virtual
						{
							OFFSET 0.000000 0.000000 0.000000
							CHANNELS 3 Xrotation Yrotation Zrotation
							JOINT LeftShoulder
							{
								OFFSET 15.263000 10.923401 -0.547700
								CHANNELS 3 Xrotation Yrotation Zrotation
								JOINT LeftArm
								{
									OFFSET 25.438599 -2.830597 -13.032500
									CHANNELS 3 Xrotation Yrotation Zrotation
									JOINT LeftForeArm
									{
										OFFSET 29.960503 0.000000 0.000000
										CHANNELS 3 Xrotation Yrotation Zrotation
										JOINT LeftHand
										{
											OFFSET 27.849251 0.000000 0.000000
											CHANNELS 3 Xrotation Yrotation Zrotation
											End Site
											{
												OFFSET 0 0 0
											}
										}
									}
								}
							}
						}
						JOINT RightShoulder_virtual
						{
							OFFSET 0.000000 0.000000 0.000000
							CHANNELS 3 Xrotation Yrotation Zrotation
							JOINT RightShoulder
							{
								OFFSET -15.263000 10.923401 -0.547700
								CHANNELS 3 Xrotation Yrotation Zrotation
								JOINT RightArm
								{
									OFFSET -25.438599 -2.830597 -13.032500
									CHANNELS 3 Xrotation Yrotation Zrotation
									JOINT RightForeArm
									{
										OFFSET -29.960503 0.000000 0.000000
										CHANNELS 3 Xrotation Yrotation Zrotation
										JOINT RightHand
										{
											OFFSET -27.849251 0.000000 0.000000
											CHANNELS 3 Xrotation Yrotation Zrotation
											End Site
											{
												OFFSET 0 0 0
											}
										}
									}
								}
							}
						}
					}
				}
			}
		}
	}
}
MOTION
Frames: 10
Frame Time: 0.03333333
-6.523918 79.578636 6.944057 0.000000 0.000000 0.000000 10.433191 -70.611609 8.339978 -19.808305 50.255729 30.243541 62.104062 3.063090 -3.940909 -36.515393 9.066930 -1.534688 0.000000 0.000000 0.000000 8.504212 -68.945979 6.265417 -22.257963 6.137278 -30.141522 24.878909 1.161820 0.702725 -16.368058 3.559790 35.456400 0.000000 0.000000 0.000000 7.693763 -68.015707 6.145758 -0.261450 0.555103 -0.637181 10.954789 -7.726591 7.212865 -1.472471 -11.050848 6.399599 0.000000 0.000000 0.000000 -11.537722 -10.850583 3.811625 -0.271757 8.928387 0.782955 0.000000 0.000000 0.000000 -8.252118 -11.461478 4.203835 2.004455 -19.670327 16.784167 -8.041486 -9.659952 -2.793555 -7.588392 -39.155637 -7.312391 0.000000 0.000000 0.000000 -11.137978 -10.224246 5.554029 1.615807 -16.879807 10.714066 -54.369238 -7.252725 -20.221712 -7.562009 31.415523 7.715966 0.000000 0.000000 0.000000 
-7.477521 80.822075 8.739513 0.000000 0.000000 0.000000 8.426077 -67.836783 5.420676 -14.868545 52.413560 25.291263 57.518853 6.865452 -4.291054 -40.556109 11.392226 5.289313 0.000000 0.000000 0.000000 7.245575 -66.328595 3.999131 -20.150704 5.038466 -28.799861 30.445343 -2.903755 1.334563 -21.890483 -2.260770 28.332238 0.000000 0.000000 0.000000 7.468214 -66.074198 4.647980 -0.159514 0.557577 -0.628135 8.801594 -7.766511 7.396566 -2.804588 -11.581504 6.385454 0.000000 0.000000 0.000000 -12.901363 -11.204609 3.769183 0.753021 8.178443 1.105864 0.000000 0.000000 0.000000 -9.996121 -11.838285 4.014862 2.218973 -19.088302 24.981499 -10.325133 -19.767913 3.803229 -7.591649 -34.979533 -6.882024 0.000000 0.000000 0.000000 -12.829078 -10.336000 5.787273 0.744526 -16.986366 7.181812 -60.505668 -7.825989 -23.378674 -7.227841 33.564636 7.749408 0.000000 0.000000 0.000000 
-8.357647 81.816864 11.354256 0.000000 0.000000 0.000000 7.519044 -65.024057 3.658589 -8.847428 52.260318 20.421762 52.059951 8.290056 -3.315789 -43.800842 12.118584 8.484960 0.000000 0.000000 0.000000 7.028858 -63.653347 2.626751 -19.522957 5.639960 -26.504399 37.731239 -7.156659 1.596517 -23.115018 -7.215261 17.872911 0.000000 0.000000 0.000000 7.695565 -64.080336 3.762292 -0.001065 0.774803 -0.331687 6.222244 -7.756851 7.478119 -4.474947 -11.954045 5.714703 0.000000 0.000000 0.000000 -14.402424 -11.370117 3.166065 1.690300 7.407248 1.439803 0.000000 0.000000 0.000000 -11.987394 -11.940345 3.351860 1.562250 -16.714402 34.091148 -13.938454 -27.567146 8.575581 -7.186153 -31.448725 -6.051869 0.000000 0.000000 0.000000 -14.661102 -10.330439 5.461577 -0.346558 -17.409648 2.419704 -66.109702 -8.237367 -25.670784 -7.228039 37.304991 8.394725 0.000000 0.000000 0.000000 
-9.158203 82.374931 14.785698 0.000000 0.000000 0.000000 7.507632 -61.827678 2.893122 -1.998979 49.874782 16.575457 45.995580 6.831822 -1.442446 -45.915967 11.507521 6.927911 0.000000 0.000000 0.000000 7.826265 -60.720238 2.043318 -19.349492 7.829334 -23.647831 44.319506 -10.095605 1.542030 -17.120832 -10.719406 8.347375 0.000000 0.000000 0.000000 7.384048 -61.196542 2.766867 0.063373 0.828499 0.406757 3.649601 -7.850471 7.335576 -6.305912 -12.327388 4.369941 0.000000 0.000000 0.000000 -16.063218 -11.514501 2.005955 2.402552 6.661515 1.754431 0.000000 0.000000 0.000000 -14.090123 -11.964618 2.124428 -0.232155 -13.119865 42.978569 -19.639989 -32.521317 10.627311 -6.506982 -29.611933 -5.038381 0.000000 0.000000 0.000000 -16.511451 -10.389315 4.422725 -1.901682 -18.460396 -3.864836 -70.430506 -8.924393 -27.015008 -7.788071 42.844995 9.727204 0.000000 0.000000 0.000000 
-9.765409 82.278610 18.702919 0.000000 0.000000 0.000000 7.396849 -57.956484 2.369321 2.585700 47.664229 16.215653 41.190033 3.661156 -0.347474 -45.783923 10.654442 1.529452 0.000000 0.000000 0.000000 8.362324 -56.673307 1.466312 -20.232709 10.222512 -21.083681 50.060861 -10.745846 1.707688 -3.715594 -12.526340 3.997007 0.000000 0.000000 0.000000 6.415379 -57.119725 1.524410 -0.077315 0.712834 0.919652 1.602273 -7.995609 6.859165 -8.206392 -12.621349 2.483556 0.000000 0.000000 0.000000 -17.687343 -11.612773 0.401974 2.789569 5.992782 1.969677 0.000000 0.000000 0.000000 -15.952494 -11.978139 0.389897 -2.859871 -9.171320 50.375292 -26.744284 -35.335389 9.516643 -5.413253 -30.027629 -3.967045 0.000000 0.000000 0.000000 -18.110954 -10.501374 2.687355 -4.223483 -19.855107 -11.974595 -73.555065 -9.495078 -26.644699 -9.109354 49.214330 11.604403 0.000000 0.000000 0.000000 
-10.256733 81.498810 22.202906 0.000000 0.000000 0.000000 6.701126 -52.600981 1.519777 2.682614 46.815158 19.973597 39.352808 0.101150 -0.535953 -43.661755 9.749154 -5.645706 0.000000 0.000000 0.000000 8.403779 -50.531929 0.609643 -22.873086 10.427094 -19.515705 56.198479 -8.809548 2.891189 13.605869 -11.222025 4.970496 0.000000 0.000000 0.000000 5.128668 -51.294526 0.138054 -0.149234 0.854490 1.100324 0.651876 -8.097089 6.065267 -9.943487 -12.686890 0.332865 0.000000 0.000000 0.000000 -18.993405 -11.508058 -1.418435 2.878204 5.361708 2.021709 0.000000 0.000000 0.000000 -17.370204 -11.869901 -1.644694 -5.603689 -5.677862 55.326281 -33.894728 -36.959311 5.386190 -3.927284 -32.503392 -3.058460 0.000000 0.000000 0.000000 -19.329155 -10.478862 0.530218 -7.320783 -20.731359 -21.849569 -75.334070 -8.844404 -23.647155 -10.657772 53.908146 13.208132 0.000000 0.000000 0.000000 
-10.495145 80.296143 25.148218 0.000000 0.000000 0.000000 5.783580 -45.002211 0.377072 -2.708371 46.201893 27.372270 41.706259 -3.502526 -1.075474 -39.883326 8.645985 -12.582907 0.000000 0.000000 0.000000 7.829120 -42.347904 -0.921173 -27.817641 7.043330 -19.630643 64.300227 -4.690087 5.514588 27.231326 -6.520248 7.790346 0.000000 0.000000 0.000000 4.056761 -42.807254 -1.245414 -0.223304 0.819724 0.727271 1.022148 -8.020943 5.176450 -11.074417 -12.248708 -1.677378 0.000000 0.000000 0.000000 -19.703849 -10.960197 -3.179747 2.748739 4.714679 1.856800 0.000000 0.000000 0.000000 -18.122162 -11.355110 -3.636890 -7.765654 -2.831568 57.106006 -40.070527 -37.894535 -0.714220 -1.895760 -37.211014 -2.263615 0.000000 0.000000 0.000000 -19.966035 -9.984026 -1.637416 -10.759169 -20.199711 -32.855635 -75.885458 -6.421848 -18.289693 -11.783946 55.794852 13.632607 0.000000 0.000000 0.000000 
-10.503510 79.130974 26.916704 0.000000 0.000000 0.000000 5.114520 -34.953541 -1.015715 -12.314756 43.881787 36.948055 47.561821 -7.029493 -1.092562 -37.046181 7.287145 -18.106027 0.000000 0.000000 0.000000 6.828565 -32.124968 -2.898053 -35.377187 1.418502 -21.610119 74.792136 1.263783 7.885856 34.361251 0.688085 11.350170 0.000000 0.000000 0.000000 3.616793 -32.126608 -2.515864 0.144113 0.910177 -0.014707 2.770534 -7.575358 4.395108 -11.385341 -11.061549 -3.179067 0.000000 0.000000 0.000000 -19.429499 -9.750961 -4.556170 2.429743 3.994362 1.471748 0.000000 0.000000 0.000000 -18.082234 -10.098579 -5.144956 -9.064846 -0.367846 55.991575 -44.541979 -38.310459 -6.607781 0.490911 -42.627118 -1.443790 0.000000 0.000000 0.000000 -19.779275 -8.821634 -3.411978 -13.763110 -17.931521 -43.704789 -75.724893 -2.899405 -12.322289 -12.633353 55.246016 12.945742 0.000000 0.000000 0.000000 
-10.427913 78.513298 27.714821 0.000000 0.000000 0.000000 5.336387 -22.858719 -2.586161 -22.454886 38.357147 45.388298 53.425958 -10.755024 -0.327255 -37.409807 5.280063 -22.949490 0.000000 0.000000 0.000000 6.431544 -20.098675 -4.873064 -44.574354 -4.228339 -24.898119 85.456281 7.535340 7.990719 35.007667 8.665869 15.252016 0.000000 0.000000 0.000000 4.009129 -19.690167 -3.915041 0.626608 1.035101 -0.608865 5.463767 -6.719453 3.939787 -10.572077 -9.140628 -3.998670 0.000000 0.000000 0.000000 -18.097817 -7.851971 -5.369372 1.984639 3.112992 0.948841 0.000000 0.000000 0.000000 -17.227175 -8.089757 -5.912756 -9.398901 1.761867 52.373317 -47.077086 -38.059265 -10.621099 2.449053 -46.884147 -0.767647 0.000000 0.000000 0.000000 -18.605188 -6.914830 -4.513163 -15.584798 -14.442095 -53.276920 -75.081469 0.697713 -7.812782 -13.864293 53.855133 11.686935 0.000000 0.000000 0.000000 
-10.175411 78.670952 27.576441 0.000000 0.000000 0.000000 6.618120 -9.612703 -4.584218 -31.795927 30.128750 51.361817 57.747494 -14.400431 0.540026 -38.534875 2.709267 -26.854957 0.000000 0.000000 0.000000 6.735435 -7.419500 -7.030610 -53.660534 -8.379983 -28.767063 94.038468 12.188927 6.184222 28.871377 14.688257 19.255693 0.000000 0.000000 0.000000 5.150886 -6.546007 -5.703021 0.975711 0.816367 -0.922284 8.429067 -5.584476 3.865734 -8.698112 -6.726146 -4.116474 0.000000 0.000000 0.000000 -15.828463 -5.458199 -5.551677 1.404927 2.052635 0.459234 0.000000 0.000000 0.000000 -15.592803 -5.534355 -5.913709 -8.861282 3.439518 46.976347 -47.007599 -37.106352 -11.706507 3.321143 -48.435071 -0.606374 0.000000 0.000000 0.000000 -16.413846 -4.493970 -4.860676 -16.034313 -10.608903 -60.557755 -74.235024 2.764024 -5.767709 -16.159125 53.736561 10.673736 0.000000 0.000000 0.000000 
